<svg xmlns="http://www.w3.org/2000/svg" width="256" height="256" viewBox="0 0 256 256">
  <defs>
    <linearGradient id="metal" x1="0" y1="0" x2="0" y2="1">
      <stop offset="0" stop-color="#eef7ff"/>
      <stop offset="0.45" stop-color="#73b4ff"/>
      <stop offset="1" stop-color="#3157a9"/>
    </linearGradient>
    <linearGradient id="metal2" x1="0" y1="0" x2="1" y2="1">
      <stop offset="0" stop-color="#9dd7ff"/>
      <stop offset="1" stop-color="#73b4ff"/>
    </linearGradient>
    <radialGradient id="gem" cx="50%" cy="40%" r="65%">
      <stop offset="0" stop-color="#ffffff" stop-opacity=".95"/>
      <stop offset=".28" stop-color="#ffffff" stop-opacity=".98"/>
      <stop offset="1" stop-color="#9dd7ff" stop-opacity=".98"/>
    </radialGradient>
    <filter id="shadow" x="-50%" y="-50%" width="200%" height="200%">
      <feDropShadow dx="0" dy="8" stdDeviation="8" flood-color="#000000" flood-opacity=".45"/>
    </filter>
    <filter id="softglow" x="-60%" y="-60%" width="220%" height="220%">
      <feGaussianBlur stdDeviation="6" result="b"/>
      <feMerge><feMergeNode in="b"/><feMergeNode in="SourceGraphic"/></feMerge>
    </filter>
  </defs>
  <g filter="url(#shadow)">
    <ellipse cx='128' cy='120' rx='92' ry='76' fill='#9dd7ff' opacity='.18' filter='url(#softglow)'/>
    <path d="M128 30
             L160 46 L182 80 L182 118
             L210 130 L194 162 L166 170
             L158 200 L128 224
             L98 200 L90 170
             L62 162 L46 130
             L74 118 L74 80 L96 46 Z"
          fill="url(#metal)" stroke="#9dd7ff" stroke-width="4" />
    <path d="M128 48
             L152 60 L168 88 L168 118
             L188 128 L176 150 L154 156
             L148 182 L128 198
             L108 182 L102 156
             L80 150 L68 128
             L88 118 L88 88 L104 60 Z"
          fill="#0b1020" fill-opacity=".72" stroke="#9dd7ff" stroke-width="2"/>
    <path d="M70 78 L26 102 L44 128 L82 116 Z" fill="url(#metal2)" stroke="#9dd7ff" stroke-width="3"/>
    <path d="M186 78 L230 102 L212 128 L174 116 Z" fill="url(#metal2)" stroke="#9dd7ff" stroke-width="3"/>
    <path d="M56 122 L18 146 L44 160 L72 146 Z" fill="url(#metal2)" opacity=".9" stroke="#9dd7ff" stroke-width="3"/>
    <path d="M200 122 L238 146 L212 160 L184 146 Z" fill="url(#metal2)" opacity=".9" stroke="#9dd7ff" stroke-width="3"/>
    <circle cx="128" cy="122" r="30" fill="url(#gem)" stroke="#ffffff" stroke-opacity=".45" stroke-width="3"/>
    <circle cx="128" cy="122" r="14" fill="#0b1020" opacity=".32"/>
    <text x="128" y="132" text-anchor="middle" font-size="28" font-weight="700" fill="#f8fafc" style="font-family:Segoe UI,Arial,sans-serif">V</text>
    <path d="M95 176 L128 204 L161 176" fill="none" stroke="#9dd7ff" stroke-width="6" stroke-linecap="round"/>
    <path d="M100 58 Q128 32 156 58" fill="none" stroke="#ffffff" stroke-opacity=".25" stroke-width="3"/>
  </g>
</svg>